<svg width="19" height="19" viewBox="0 0 19 19" fill="none" xmlns="http://www.w3.org/2000/svg">
<g clip-path="url(#clip0)">
<path d="M8.44077 12.4797L8.20389 14.6097C8.19217 14.7157 8.22625 14.8221 8.29739 14.9016C8.36853 14.9812 8.47048 15.0267 8.57718 15.0267H10.0792C10.1859 15.0267 10.2878 14.9812 10.3589 14.9016C10.4301 14.8221 10.4642 14.7157 10.4524 14.6097L10.2156 12.4797C10.6002 12.1999 10.8301 11.7573 10.8301 11.2718C10.8301 10.4434 10.1565 9.76978 9.32815 9.76978C8.49977 9.76978 7.82617 10.4434 7.82617 11.2718C7.82617 11.7573 8.05611 12.1999 8.44077 12.4797ZM9.32815 10.5208C9.74213 10.5208 10.0791 10.8578 10.0791 11.2718C10.0791 11.5596 9.91557 11.8174 9.6523 11.945C9.50892 12.0147 9.42496 12.1665 9.44256 12.3245L9.65965 14.2757H8.99669L9.21378 12.3245C9.23138 12.1665 9.14742 12.0147 9.00404 11.945C8.74077 11.8174 8.57721 11.5596 8.57721 11.2718C8.57718 10.8578 8.91417 10.5208 9.32815 10.5208Z" fill="#888888"/>
<path d="M15.7115 6.76593H14.5851V5.26395C14.5851 2.36529 12.2269 0.00708008 9.32819 0.00708008C6.42949 0.00708008 4.07132 2.36529 4.07132 5.26395V6.76593H2.94484C2.73729 6.76593 2.56934 6.93389 2.56934 7.14144V16.5287C2.56934 17.3571 3.24293 18.0307 4.07132 18.0307H14.5851C15.4134 18.0307 16.087 17.3571 16.087 16.5287V7.14144C16.087 6.93389 15.9191 6.76593 15.7115 6.76593ZM4.82229 5.26395C4.82229 2.77927 6.8435 0.758052 9.32819 0.758052C11.8129 0.758052 13.8341 2.77927 13.8341 5.26395V6.76593H13.0831V5.26395C13.0831 3.1936 11.3985 1.50902 9.32819 1.50902C7.25783 1.50902 5.57326 3.19363 5.57326 5.26395V6.76593H4.82229V5.26395ZM12.3321 5.26395V6.76593H6.32427V5.26395C6.32427 3.60761 7.67185 2.26003 9.32819 2.26003C10.9845 2.26003 12.3321 3.60761 12.3321 5.26395ZM15.3361 16.5287C15.3361 16.9427 14.9991 17.2797 14.5851 17.2797H4.07132C3.65734 17.2797 3.32034 16.9427 3.32034 16.5287V7.51691H15.3361V16.5287Z" fill="#888888"/>
</g>
<defs>
<clipPath id="clip0">
<rect width="18.0236" height="18.0236" fill="white" transform="translate(0.316406 0.00708008)"/>
</clipPath>
</defs>
</svg>
