<svg width="19" height="19" viewBox="0 0 19 19" fill="none" xmlns="http://www.w3.org/2000/svg">
<g clip-path="url(#clip0)">
<path d="M17.8671 14.3702L14.219 11.9373C13.7561 11.6311 13.1355 11.7319 12.7933 12.1689L11.7306 13.5352C11.5941 13.7153 11.3458 13.7675 11.1482 13.6577L10.9461 13.5463C10.276 13.1811 9.44228 12.7264 7.76242 11.0459C6.08257 9.36545 5.62694 8.53106 5.2617 7.86221L5.15086 7.66008C5.03961 7.46255 5.09085 7.21325 5.27099 7.07559L6.63636 6.01327C7.07323 5.67098 7.17414 5.0506 6.86824 4.58751L4.43541 0.939464C4.12191 0.467892 3.49294 0.326329 3.0076 0.618078L1.48212 1.53444C1.00281 1.81622 0.651155 2.27259 0.500898 2.8079C-0.0484234 4.80942 0.364826 8.26374 5.45335 13.3529C9.50116 17.4004 12.5146 18.4888 14.5858 18.4888C15.0624 18.4909 15.5373 18.4289 15.9974 18.3044C16.5328 18.1544 16.9893 17.8027 17.2709 17.3232L18.1882 15.7986C18.4803 15.3132 18.3388 14.6838 17.8671 14.3702ZM17.6706 15.4905L16.7555 17.0159C16.5533 17.362 16.225 17.6164 15.8394 17.726C13.9916 18.2333 10.7635 17.8131 5.87832 12.9279C0.993131 8.04271 0.572982 4.81485 1.08028 2.96682C1.18995 2.58078 1.44471 2.25207 1.79119 2.04955L3.31667 1.13439C3.52725 1.00768 3.80024 1.06909 3.93628 1.27373L5.25783 3.25783L6.36703 4.92146C6.49986 5.12233 6.45622 5.39155 6.26672 5.54019L4.90103 6.60251C4.48543 6.9203 4.36674 7.49532 4.62262 7.95168L4.73107 8.14872C5.11493 8.85273 5.59216 9.72854 7.33449 11.4706C9.07682 13.2126 9.95235 13.6899 10.656 14.0737L10.8534 14.1824C11.3097 14.4383 11.8847 14.3196 12.2025 13.904L13.2649 12.5383C13.4135 12.3489 13.6827 12.3053 13.8836 12.438L17.5313 14.8708C17.7361 15.0068 17.7975 15.2799 17.6706 15.4905Z" fill="#888888"/>
<path d="M10.5289 3.47104C13.3475 3.47417 15.6316 5.75836 15.6348 8.57698C15.6348 8.74286 15.7693 8.87732 15.9351 8.87732C16.101 8.87732 16.2355 8.74286 16.2355 8.57698C16.232 5.42673 13.6791 2.87381 10.5289 2.87036C10.363 2.87036 10.2285 3.00481 10.2285 3.1707C10.2285 3.33658 10.363 3.47104 10.5289 3.47104Z" fill="#888888"/>
<path d="M10.5289 5.27328C12.3526 5.27543 13.8306 6.75336 13.8327 8.57713C13.8327 8.74302 13.9672 8.87747 14.133 8.87747C14.2989 8.87747 14.4334 8.74302 14.4334 8.57713C14.4309 6.42173 12.6842 4.67507 10.5289 4.67261C10.363 4.67261 10.2285 4.80706 10.2285 4.97294C10.2285 5.13883 10.363 5.27328 10.5289 5.27328Z" fill="#888888"/>
<path d="M10.5289 7.0748C11.3578 7.07578 12.0296 7.74755 12.0306 8.57655C12.0306 8.74244 12.1651 8.87689 12.3309 8.87689C12.4968 8.87689 12.6313 8.74244 12.6313 8.57655C12.63 7.41596 11.6894 6.47542 10.5289 6.47412C10.363 6.47412 10.2285 6.60857 10.2285 6.77446C10.2285 6.94034 10.363 7.0748 10.5289 7.0748Z" fill="#888888"/>
</g>
<defs>
<clipPath id="clip0">
<rect width="18.0236" height="18.0236" fill="white" transform="translate(0.316406 0.465332)"/>
</clipPath>
</defs>
</svg>
