<svg width="20" height="19" viewBox="0 0 20 19" fill="none" xmlns="http://www.w3.org/2000/svg">
<g clip-path="url(#clip0)">
<path d="M0.428104 2.57711L1.6934 4.68054C1.73608 4.75162 1.80752 4.80305 1.89105 4.82295L3.07151 5.10331L7.12022 8.94958L7.56758 8.52472L3.4555 4.61837C3.41503 4.5798 3.36428 4.55248 3.30872 4.53925L2.17446 4.26891L1.09719 2.47699L2.02078 1.59957L3.9078 2.62396L4.1925 3.70151C4.2063 3.75442 4.23518 3.80275 4.27565 3.8412L8.38773 7.74768L8.83496 7.32269L4.78624 3.47641L4.49113 2.3556C4.47018 2.27611 4.41605 2.20812 4.34123 2.16745L2.12696 0.965546C2.00348 0.898794 1.84811 0.918572 1.7474 1.01388L0.482234 2.21591C0.38048 2.31097 0.358359 2.45881 0.428104 2.57711Z" fill="#888888"/>
<path d="M13.5789 6.84601L6.62021 13.4569L6.17285 13.0319L13.1317 6.42114L13.5789 6.84601Z" fill="#888888"/>
<path d="M5.40196 13.6907C5.3447 13.6002 5.24191 13.5449 5.13079 13.5449H3.23297C3.12198 13.5449 3.01905 13.6002 2.96193 13.6907L2.01296 15.1931C1.95271 15.2883 1.95271 15.4073 2.01296 15.5026L2.96193 17.005C3.01905 17.0954 3.12198 17.1508 3.23297 17.1508H5.13079C5.24191 17.1508 5.3447 17.0954 5.40196 17.005L6.3508 15.5026C6.41105 15.4073 6.41105 15.2883 6.3508 15.1931L5.40196 13.6907ZM4.95187 16.5497H3.41202L2.65289 15.3478L3.41202 14.1458H4.95187L5.711 15.3478L4.95187 16.5497Z" fill="#888888"/>
<path d="M15.5685 8.13625C17.6576 8.14293 19.357 6.5394 19.364 4.55476C19.3651 4.25265 19.326 3.95177 19.2478 3.65892C19.2057 3.49785 19.034 3.39983 18.8645 3.43988C18.8088 3.4531 18.758 3.48042 18.7174 3.51887L16.7485 5.38817L15.1862 4.89359L14.6652 3.40984L16.6342 1.53893C16.7577 1.42149 16.7576 1.23125 16.6339 1.11394C16.5932 1.07525 16.5419 1.04781 16.4859 1.0347C14.4599 0.54729 12.4018 1.71236 11.8887 3.63692C11.8108 3.9289 11.7718 4.22904 11.7729 4.53028C11.7737 4.76688 11.7993 5.00274 11.8498 5.2344L4.92254 11.8152C4.67869 11.7673 4.43042 11.743 4.1815 11.7421C2.08512 11.7421 0.385742 13.3565 0.385742 15.3481C0.385742 17.3395 2.08512 18.9539 4.1815 18.9539C6.27775 18.9539 7.97713 17.3395 7.97713 15.3481C7.97635 15.1115 7.95058 14.8756 7.90023 14.644L9.55862 13.0685L10.2839 13.7575C10.4075 13.8748 10.6077 13.8748 10.7313 13.7575L10.8894 13.6072C11.0281 13.4763 11.2523 13.4763 11.391 13.6072C11.5296 13.7385 11.5298 13.9516 11.3916 14.0832C11.3915 14.0834 11.3912 14.0836 11.391 14.0839L11.2329 14.2341C11.1094 14.3514 11.1094 14.5416 11.2329 14.6589L15.0061 18.2435C15.9986 19.195 17.6149 19.2019 18.6165 18.2591C19.6179 17.3163 19.6252 15.7806 18.6327 14.8293C18.6274 14.8241 18.6219 14.8189 18.6165 14.8137L14.8432 11.2292C14.7197 11.1119 14.5195 11.1119 14.396 11.2292L14.2379 11.3794C14.0991 11.5104 13.875 11.5104 13.7362 11.3794C13.5977 11.2481 13.5973 11.035 13.7355 10.9035C13.7358 10.9032 13.736 10.9031 13.7362 10.9029L13.8944 10.7526C14.0179 10.6353 14.0179 10.445 13.8944 10.3277L13.1691 9.63867L14.8275 8.0632C15.0713 8.11104 15.3196 8.13551 15.5685 8.13625ZM16.8113 18.353C16.5815 18.3527 16.3537 18.3132 16.1386 18.2365L18.6089 15.8895C18.9817 16.8316 18.4801 17.8823 17.4884 18.2365C17.2721 18.3137 17.0427 18.3533 16.8113 18.353ZM13.2279 10.5432C12.8776 10.9401 12.9325 11.5317 13.3503 11.8644C13.7175 12.1567 14.2527 12.1565 14.6195 11.8635L18.1692 15.2387C18.2078 15.2754 18.2438 15.3141 18.2787 15.3534L15.5742 17.9226C15.5327 17.8896 15.492 17.8553 15.4534 17.8186L11.9009 14.4436C12.2512 14.0467 12.1963 13.455 11.7785 13.1224C11.4113 12.8299 10.876 12.8303 10.5092 13.1231L10.0031 12.6424L12.7217 10.0635L13.2279 10.5432ZM14.5052 7.5209L7.32965 14.3363C7.25092 14.4109 7.2193 14.5194 7.24611 14.6218C7.68006 16.2408 6.65028 17.8875 4.94596 18.2996C3.24177 18.7119 1.50843 17.7336 1.07447 16.1145C0.640649 14.4955 1.67043 12.8488 3.37475 12.4366C3.89029 12.312 4.43042 12.312 4.94596 12.4366C5.05383 12.4617 5.16769 12.4316 5.24654 12.3573L12.4204 5.54183C12.499 5.46716 12.5306 5.35875 12.5035 5.2564C12.0726 3.65633 13.0885 2.02733 14.7728 1.6178C15.0911 1.54054 15.4203 1.51087 15.7482 1.53028L14.0797 3.11601C13.995 3.19636 13.9653 3.3154 14.0032 3.42331L14.6357 5.22636C14.6673 5.31598 14.7415 5.38644 14.8359 5.41623L16.7339 6.01725C16.8473 6.05322 16.9726 6.02516 17.0574 5.94481L18.7259 4.3597C18.7297 4.41705 18.7316 4.47379 18.7316 4.53028C18.7405 6.18141 17.3388 7.52671 15.6008 7.53524C15.3321 7.53648 15.0643 7.50508 14.8041 7.44179C14.6962 7.4162 14.5821 7.44611 14.5035 7.52078H14.5052V7.5209Z" fill="#888888"/>
<path d="M16.7422 16.0371L16.2948 16.462L13.1318 13.4572L13.5791 13.0322L16.7422 16.0371Z" fill="#888888"/>
</g>
<defs>
<clipPath id="clip0">
<rect width="18.9722" height="18.0236" fill="white" transform="translate(0.368164 0.923584)"/>
</clipPath>
</defs>
</svg>
